PathFileType	4	(X/Y/Z)	C:/Users/dbak576/Desktop/Duncan Bakke Modelling Files/H28s1/Static_H28s1.trc	
DataRate	CameraRate	NumFrames	NumMarkers	Units	OrigDataRate	OrigDataStartFrame	OrigNumFrames	
200.00	200.00	4	61	mm	200.00	371	187	
Frame#	Time	LFHD			RFHD			LBHD			RBHD			C7			T10			CLAV			STRN			RBack			LASI			RASI			LPSI			RPSI			RACR1			RUA1			RElbow			RElbowM			RFA1			RWRR			RWRU			RCAR			LACR1			LUA1			LElbow			LElbowM			LFA1			LWRR			LWRU			LCAR			RTH1			RTH3			RTH2			RTH4			RLFC			RMFC			RTB1			RTB3			RTB2			RTB4			RLMAL			RMMAL			RCAL			RMT1			RMT5			RToe			LTH1			LTH3			LTH2			LTH4			LLFC			LMFC			LTB1			LTB3			LTB2			LTB4			LLMAL			LMMAL			LCAL			LMT1			LMT5			LToe			
		X1	Y1	Z1	X2	Y2	Z2	X3	Y3	Z3	X4	Y4	Z4	X5	Y5	Z5	X6	Y6	Z6	X7	Y7	Z7	X8	Y8	Z8	X9	Y9	Z9	X10	Y10	Z10	X11	Y11	Z11	X12	Y12	Z12	X13	Y13	Z13	X14	Y14	Z14	X15	Y15	Z15	X16	Y16	Z16	X17	Y17	Z17	X18	Y18	Z18	X19	Y19	Z19	X20	Y20	Z20	X21	Y21	Z21	X22	Y22	Z22	X23	Y23	Z23	X24	Y24	Z24	X25	Y25	Z25	X26	Y26	Z26	X27	Y27	Z27	X28	Y28	Z28	X29	Y29	Z29	X30	Y30	Z30	X31	Y31	Z31	X32	Y32	Z32	X33	Y33	Z33	X34	Y34	Z34	X35	Y35	Z35	X36	Y36	Z36	X37	Y37	Z37	X38	Y38	Z38	X39	Y39	Z39	X40	Y40	Z40	X41	Y41	Z41	X42	Y42	Z42	X43	Y43	Z43	X44	Y44	Z44	X45	Y45	Z45	X46	Y46	Z46	X47	Y47	Z47	X48	Y48	Z48	X49	Y49	Z49	X50	Y50	Z50	X51	Y51	Z51	X52	Y52	Z52	X53	Y53	Z53	X54	Y54	Z54	X55	Y55	Z55	X56	Y56	Z56	X57	Y57	Z57	X58	Y58	Z58	X59	Y59	Z59	X60	Y60	Z60	X61	Y61	Z61	

47	0.230	-9.65947	-324.91519	1447.26404	86.23834	-341.63803	1434.61414	-49.56365	-455.25812	1380.98694	82.33080	-476.25009	1371.32080	13.44956	-510.85999	1277.45215	23.75505	-575.32599	1072.61121	12.68203	-362.73456	1207.64734	10.62865	-310.95462	1108.35693	123.63802	-551.53479	1149.72388	-155.21599	-374.07843	830.71423	164.02104	-342.51147	832.24475	-25.81656	-622.32031	863.10760	76.69467	-606.84918	854.25079	158.32976	-474.34039	1261.45032	282.94934	-462.24109	1225.49731	401.21490	-430.91324	1198.22192	392.19525	-366.94302	1147.01636	513.00269	-408.33014	1244.76282	603.15869	-356.84543	1263.64844	613.75732	-385.83383	1198.99500	678.55640	-350.04868	1232.41431	-141.44231	-474.20032	1264.02966	-276.71146	-438.08563	1231.15015	-380.66556	-392.64365	1191.87708	-360.38156	-341.84549	1154.80798	-477.50476	-387.22620	1230.06067	-576.06775	-334.93375	1247.30127	-585.15662	-354.47903	1187.96741	-645.34894	-326.05344	1215.22449	221.23277	-424.87546	652.17279	189.54890	-441.10501	481.67749	188.82982	-377.61786	565.68060	210.23439	-435.06384	566.51440	173.58853	-480.13733	399.24512	34.70265	-454.92538	386.07111	140.31442	-429.14441	294.67108	143.19450	-442.35413	123.55854	189.27904	-478.36578	212.81862	141.34290	-439.49722	208.17250	181.03749	-492.20557	62.89510	99.74619	-473.77478	63.16819	135.19345	-545.43054	32.13826	124.90388	-374.89590	26.69330	216.49513	-406.71561	25.11123	162.22372	-321.05777	28.86977	-215.02631	-450.16721	673.13593	-192.40727	-459.89853	501.12192	-185.74432	-399.73856	588.75012	-209.88655	-453.23309	587.31000	-173.61850	-446.49228	405.59702	-32.36669	-448.58194	398.37857	-128.46434	-425.16934	298.67175	-152.29933	-446.90137	130.16719	-193.83073	-466.55573	224.32373	-139.31862	-439.29672	212.22014	-188.60669	-502.81366	64.23635	-112.16556	-474.27356	65.23635	-145.46544	-541.29810	41.33000	-140.39935	-374.30841	31.90881	-223.99333	-420.29202	21.12093	-171.96710	-320.68848	26.29769 
48	0.235	-9.63621	-324.92908	1447.23682	86.16447	-341.65161	1434.55591	-49.44336	-455.27328	1380.93262	82.33801	-476.23361	1371.30688	13.46715	-510.88586	1277.45972	23.78805	-575.35864	1072.59680	12.68460	-362.72705	1207.63611	10.93830	-310.82123	1108.21631	123.62846	-551.55383	1149.69189	-155.24471	-374.05844	830.68964	164.00449	-342.51334	832.26630	-25.76458	-622.33936	863.08783	76.63107	-606.95612	854.26300	158.33560	-474.34451	1261.45178	282.98721	-462.22296	1225.50244	401.23300	-430.97278	1198.18982	392.19452	-366.92288	1147.03772	513.00348	-408.30286	1244.78662	603.14789	-356.79318	1263.68542	613.78174	-385.69751	1198.99780	678.56866	-350.03250	1232.43359	-141.46693	-474.19919	1264.03809	-276.70496	-438.10037	1231.12329	-380.66968	-392.57431	1191.70337	-360.36838	-341.87488	1154.77283	-477.46741	-387.21170	1230.03418	-576.08551	-334.93063	1247.32043	-585.15851	-354.45544	1187.94824	-645.44153	-326.02017	1215.25183	221.23312	-424.78818	652.16931	189.47011	-440.89816	481.51431	188.81407	-377.59241	565.67859	210.21306	-434.97809	566.47430	173.60632	-480.13464	399.24084	34.70057	-454.86459	386.05728	140.29637	-429.17990	294.72418	143.18831	-442.33896	123.56277	189.29245	-478.34525	212.81081	141.33311	-439.47632	208.17044	181.10217	-492.22070	62.88400	99.74034	-473.77618	63.16613	135.21094	-545.39801	32.12512	124.86337	-374.69449	26.77025	216.61928	-406.70279	25.12594	162.15974	-321.06631	28.90163	-215.01553	-450.16934	673.12946	-192.40732	-459.90079	501.13538	-185.74745	-399.73990	588.75610	-209.88142	-453.23315	587.31104	-173.62935	-446.48764	405.60220	-32.35711	-448.56656	398.38556	-128.48067	-425.16138	298.68036	-152.25723	-446.90466	130.16310	-193.83116	-466.53748	224.32387	-139.32059	-439.30197	212.21791	-188.59897	-502.80301	64.19018	-112.18879	-474.24756	65.22343	-145.54953	-541.23071	41.33162	-140.38109	-374.29721	31.93386	-224.16252	-420.32388	21.31856	-171.96873	-320.68719	26.29796 
49	0.240	-9.61586	-324.89099	1447.23938	86.07733	-341.66510	1434.49353	-49.26888	-455.41663	1380.87305	82.33251	-476.21866	1371.28088	13.48205	-510.91879	1277.46863	23.82437	-575.35016	1072.59949	12.68202	-362.73157	1207.64063	11.29340	-310.79141	1108.08105	123.63223	-551.58521	1149.66357	-155.23680	-374.08871	830.61957	163.98631	-342.51218	832.29645	-25.73982	-622.38300	863.06268	76.64083	-606.91998	854.31421	158.34834	-474.34531	1261.44788	283.02032	-462.20776	1225.50586	401.17554	-430.95267	1198.13806	392.19083	-366.90598	1147.06030	513.01874	-408.28793	1244.82288	603.14288	-356.73508	1263.72583	613.86389	-385.55829	1198.98340	678.58197	-350.01587	1232.45349	-141.47447	-474.24341	1264.00854	-276.72849	-438.13107	1231.11865	-380.63416	-392.60129	1191.38831	-360.34140	-341.90259	1154.68530	-477.43338	-387.21387	1230.02283	-576.09900	-334.93890	1247.32458	-585.16846	-354.42123	1187.92432	-645.53339	-325.99756	1215.29712	221.23122	-424.71573	652.15576	189.43114	-440.73660	481.35880	188.80646	-377.55911	565.66846	210.19380	-434.90994	566.41968	173.62831	-480.12885	399.22418	34.68908	-454.82498	386.05685	140.29204	-429.19998	294.75525	143.16765	-442.29178	123.57340	189.30171	-478.32089	212.81361	141.32573	-439.45612	208.16507	181.02098	-492.19543	62.96458	99.73236	-473.77658	63.15959	135.23396	-545.34955	32.10351	124.54486	-374.54755	27.18045	216.51253	-406.65845	25.13453	162.13467	-321.07883	28.92563	-214.99190	-450.16992	673.12030	-192.40797	-459.91052	501.13358	-185.75153	-399.73813	588.76538	-209.87178	-453.22574	587.30273	-173.63576	-446.47797	405.61063	-32.34795	-448.55148	398.38519	-128.49023	-425.15579	298.69177	-152.19330	-446.93320	130.19821	-193.83965	-466.52908	224.32649	-139.32788	-439.31097	212.22255	-188.58354	-502.79446	64.16525	-112.22693	-474.21780	65.20794	-145.60426	-541.14990	41.35752	-140.37474	-374.29160	31.94381	-224.34915	-420.35373	21.51896	-171.98700	-320.67630	26.29608 
50	0.245	-9.59627	-324.88220	1447.20947	85.98866	-341.67184	1434.43213	-49.17590	-455.47952	1380.84790	82.32351	-476.21066	1371.26147	13.49524	-510.96207	1277.47327	23.86021	-575.32196	1072.60510	12.71487	-362.79666	1207.63037	11.61660	-310.85907	1107.97827	123.64641	-551.62927	1149.64661	-155.23395	-374.16501	830.56281	163.96577	-342.50775	832.33740	-25.74115	-622.43427	863.04199	76.68657	-606.82727	854.36737	158.35614	-474.36322	1261.46472	283.04538	-462.19760	1225.50659	401.05154	-430.86273	1198.08240	392.18329	-366.89343	1147.10010	513.04077	-408.28799	1244.85742	603.16486	-356.69308	1263.68457	613.99152	-385.49802	1198.98108	678.59900	-349.98575	1232.44507	-141.46642	-474.31570	1263.94495	-276.77597	-438.16507	1231.12451	-380.59286	-392.69626	1191.07751	-360.30066	-341.93149	1154.54712	-477.42358	-387.23016	1230.02832	-576.10681	-334.95334	1247.33289	-585.17621	-354.39392	1187.90808	-645.58160	-325.98145	1215.30847	221.21880	-424.65649	652.15625	189.42902	-440.62482	481.22842	188.80513	-377.51855	565.65308	210.17403	-434.85297	566.36530	173.65984	-480.11234	399.20642	34.68887	-454.80020	386.06360	140.29004	-429.21759	294.77890	143.15474	-442.26541	123.58389	189.31024	-478.29822	212.81769	141.31996	-439.43710	208.14789	181.04143	-492.16260	62.96223	99.73186	-473.77704	63.15734	135.26706	-545.29370	32.07622	124.50821	-374.53250	27.18561	216.64262	-406.71869	25.15705	162.21515	-321.11203	28.95194	-214.96306	-450.17014	673.12683	-192.40569	-459.91843	501.13113	-185.75702	-399.73434	588.77557	-209.85732	-453.21521	587.28461	-173.62149	-446.47266	405.61749	-32.33503	-448.53571	398.38144	-128.51736	-425.14426	298.68948	-152.17317	-446.93420	130.17494	-193.85115	-466.53311	224.32761	-139.33884	-439.31210	212.22675	-188.56813	-502.77979	64.15864	-112.26764	-474.18646	65.19081	-145.66502	-541.07385	41.38419	-140.37183	-374.28900	31.94472	-224.51524	-420.36426	21.67392	-172.00761	-320.66101	26.30130 
